<svg xmlns="http://www.w3.org/2000/svg" xmlns:xlink="http://www.w3.org/1999/xlink" width="1920" zoomAndPan="magnify" viewBox="0 0 1440 809.999993" height="1080" preserveAspectRatio="xMidYMid meet" version="1.0"><defs><clipPath id="b8b87b7816"><path d="M 593.484375 254.792969 L 846.234375 254.792969 L 846.234375 507.542969 L 593.484375 507.542969 Z M 593.484375 254.792969 " clip-rule="nonzero"/></clipPath></defs><g clip-path="url(#b8b87b7816)"><path fill="#060607" d="M 719.996094 254.792969 C 650.238281 254.792969 593.484375 311.546875 593.484375 381.304688 C 593.484375 451.0625 650.238281 507.8125 719.996094 507.8125 C 789.753906 507.8125 846.503906 451.0625 846.503906 381.304688 C 846.503906 311.546875 789.753906 254.792969 719.996094 254.792969 Z M 703.296875 381.304688 C 703.296875 392.4375 709.875 417.738281 709.875 442.027344 C 709.875 466.316406 701.273438 472.390625 694.695312 472.390625 C 688.113281 472.390625 679.511719 467.835938 679.511719 442.027344 C 679.511719 416.21875 686.089844 392.4375 686.089844 381.304688 C 686.089844 370.171875 664.332031 374.21875 664.332031 345.878906 C 664.332031 320.578125 668.378906 295.277344 668.378906 295.277344 C 668.378906 295.277344 671.121094 292.808594 679.511719 291.320312 L 679.511719 340.820312 C 679.511719 343.613281 681.78125 345.878906 684.574219 345.878906 C 687.367188 345.878906 689.632812 343.613281 689.632812 340.820312 L 689.632812 290.722656 C 689.632812 290.574219 689.5625 290.449219 689.546875 290.300781 C 690.859375 290.25 692.21875 290.214844 693.679688 290.214844 C 695.894531 290.214844 697.917969 290.285156 699.820312 290.398438 C 699.808594 290.515625 699.753906 290.609375 699.753906 290.722656 L 699.753906 340.820312 C 699.753906 343.613281 702.019531 345.878906 704.8125 345.878906 C 707.609375 345.878906 709.875 343.613281 709.875 340.820312 L 709.875 291.628906 C 717.457031 293.125 720.5 295.277344 720.5 295.277344 C 720.5 295.277344 725.054688 329.179688 725.054688 345.878906 C 725.054688 374.726562 703.296875 370.171875 703.296875 381.304688 Z M 765.539062 436.96875 C 765.539062 452.148438 763.007812 472.390625 755.417969 472.390625 C 747.828125 472.390625 745.296875 461.257812 745.296875 436.96875 C 745.296875 420.773438 745.296875 290.214844 745.296875 290.214844 C 771.105469 302.867188 775.660156 329.6875 775.660156 342.84375 C 775.660156 365.109375 760.480469 383.832031 760.480469 398.507812 C 760.480469 407.109375 765.539062 416.726562 765.539062 436.96875 Z M 765.539062 436.96875 " fill-opacity="1" fill-rule="nonzero"/></g></svg>