<svg xmlns="http://www.w3.org/2000/svg" xmlns:xlink="http://www.w3.org/1999/xlink" width="1920" zoomAndPan="magnify" viewBox="0 0 1440 809.999993" height="1080" preserveAspectRatio="xMidYMid meet" version="1.0"><defs><clipPath id="1096b058a5"><path d="M 469 247.609375 L 971 247.609375 L 971 456 L 469 456 Z M 469 247.609375 " clip-rule="nonzero"/></clipPath><clipPath id="ea8a50f47c"><path d="M 531 247.609375 L 909 247.609375 L 909 287 L 531 287 Z M 531 247.609375 " clip-rule="nonzero"/></clipPath></defs><g clip-path="url(#1096b058a5)"><path fill="#060607" d="M 940.164062 247.25 L 926.660156 247.25 L 926.660156 261.203125 C 926.953125 283.734375 913.761719 305.34375 896.433594 304.839844 L 544.097656 304.839844 C 526.820312 305.351562 513.523438 283.71875 513.875 261.203125 L 513.875 247.25 L 499.832031 247.25 C 498.84375 247.253906 497.859375 247.304688 496.875 247.402344 C 495.890625 247.503906 494.914062 247.648438 493.941406 247.84375 C 492.972656 248.039062 492.015625 248.28125 491.066406 248.570312 C 490.121094 248.859375 489.191406 249.191406 488.277344 249.574219 C 487.367188 249.953125 486.472656 250.375 485.601562 250.84375 C 484.730469 251.308594 483.882812 251.820312 483.058594 252.371094 C 482.238281 252.917969 481.445312 253.507812 480.679688 254.136719 C 479.914062 254.765625 479.183594 255.425781 478.484375 256.128906 C 477.785156 256.828125 477.121094 257.558594 476.492188 258.324219 C 475.863281 259.085938 475.277344 259.882812 474.726562 260.703125 C 474.175781 261.523438 473.667969 262.371094 473.199219 263.246094 C 472.734375 264.117188 472.308594 265.007812 471.929688 265.921875 C 471.550781 266.835938 471.214844 267.765625 470.925781 268.710938 C 470.636719 269.65625 470.394531 270.617188 470.203125 271.585938 C 470.007812 272.554688 469.859375 273.53125 469.761719 274.515625 C 469.660156 275.5 469.609375 276.488281 469.609375 277.476562 L 469.609375 425.65625 C 469.609375 426.644531 469.660156 427.632812 469.761719 428.617188 C 469.859375 429.601562 470.007812 430.578125 470.203125 431.546875 C 470.394531 432.515625 470.636719 433.472656 470.925781 434.421875 C 471.214844 435.367188 471.550781 436.296875 471.929688 437.210938 C 472.308594 438.125 472.734375 439.015625 473.199219 439.886719 C 473.667969 440.761719 474.175781 441.605469 474.726562 442.429688 C 475.277344 443.25 475.863281 444.042969 476.492188 444.808594 C 477.121094 445.574219 477.785156 446.304688 478.484375 447.003906 C 479.183594 447.703125 479.914062 448.367188 480.679688 448.996094 C 481.445312 449.625 482.238281 450.214844 483.058594 450.761719 C 483.882812 451.3125 484.730469 451.820312 485.601562 452.289062 C 486.472656 452.757812 487.367188 453.179688 488.277344 453.558594 C 489.191406 453.9375 490.121094 454.273438 491.066406 454.5625 C 492.015625 454.851562 492.972656 455.09375 493.941406 455.289062 C 494.914062 455.480469 495.890625 455.628906 496.875 455.726562 C 497.859375 455.828125 498.84375 455.878906 499.832031 455.882812 L 940.164062 455.882812 C 941.152344 455.878906 942.140625 455.828125 943.125 455.726562 C 944.109375 455.628906 945.085938 455.480469 946.054688 455.289062 C 947.027344 455.09375 947.984375 454.851562 948.929688 454.5625 C 949.875 454.273438 950.804688 453.9375 951.71875 453.558594 C 952.632812 453.179688 953.523438 452.757812 954.398438 452.289062 C 955.269531 451.820312 956.117188 451.3125 956.9375 450.761719 C 957.761719 450.214844 958.554688 449.625 959.320312 448.996094 C 960.082031 448.367188 960.816406 447.703125 961.515625 447.003906 C 962.214844 446.304688 962.878906 445.574219 963.503906 444.808594 C 964.132812 444.046875 964.722656 443.25 965.273438 442.429688 C 965.824219 441.605469 966.332031 440.761719 966.796875 439.886719 C 967.265625 439.015625 967.6875 438.125 968.070312 437.210938 C 968.449219 436.296875 968.78125 435.367188 969.070312 434.421875 C 969.359375 433.472656 969.601562 432.515625 969.796875 431.546875 C 969.992188 430.578125 970.136719 429.601562 970.238281 428.617188 C 970.335938 427.632812 970.386719 426.644531 970.390625 425.65625 L 970.390625 277.476562 C 970.386719 276.488281 970.335938 275.5 970.238281 274.515625 C 970.136719 273.53125 969.992188 272.554688 969.796875 271.585938 C 969.601562 270.617188 969.359375 269.65625 969.070312 268.710938 C 968.78125 267.765625 968.449219 266.835938 968.070312 265.921875 C 967.6875 265.007812 967.265625 264.117188 966.796875 263.246094 C 966.332031 262.371094 965.824219 261.523438 965.273438 260.703125 C 964.722656 259.882812 964.132812 259.085938 963.503906 258.324219 C 962.878906 257.558594 962.214844 256.828125 961.515625 256.128906 C 960.816406 255.425781 960.082031 254.765625 959.320312 254.136719 C 958.554688 253.507812 957.761719 252.917969 956.9375 252.371094 C 956.117188 251.820312 955.269531 251.308594 954.398438 250.84375 C 953.523438 250.375 952.632812 249.953125 951.71875 249.574219 C 950.804688 249.191406 949.875 248.859375 948.929688 248.570312 C 947.984375 248.28125 947.027344 248.039062 946.054688 247.84375 C 945.085938 247.648438 944.109375 247.503906 943.125 247.402344 C 942.140625 247.304688 941.152344 247.253906 940.164062 247.25 Z M 536.585938 359.390625 L 903.410156 359.390625 C 903.992188 359.398438 904.566406 359.464844 905.136719 359.585938 C 905.703125 359.707031 906.253906 359.882812 906.789062 360.109375 C 907.324219 360.339844 907.832031 360.617188 908.3125 360.945312 C 908.792969 361.273438 909.238281 361.644531 909.644531 362.058594 C 910.050781 362.472656 910.417969 362.921875 910.738281 363.40625 C 911.058594 363.894531 911.328125 364.40625 911.546875 364.941406 C 911.769531 365.480469 911.933594 366.035156 912.046875 366.605469 C 912.160156 367.175781 912.214844 367.753906 912.214844 368.332031 C 912.214844 368.914062 912.160156 369.492188 912.046875 370.0625 C 911.933594 370.632812 911.769531 371.1875 911.546875 371.722656 C 911.328125 372.261719 911.058594 372.773438 910.738281 373.257812 C 910.417969 373.746094 910.050781 374.195312 909.644531 374.609375 C 909.238281 375.023438 908.792969 375.394531 908.3125 375.722656 C 907.832031 376.050781 907.324219 376.328125 906.789062 376.554688 C 906.253906 376.785156 905.703125 376.960938 905.136719 377.082031 C 904.566406 377.203125 903.992188 377.265625 903.410156 377.277344 L 536.585938 377.277344 C 536.007812 377.265625 535.429688 377.203125 534.863281 377.082031 C 534.292969 376.960938 533.742188 376.785156 533.207031 376.554688 C 532.671875 376.328125 532.164062 376.050781 531.6875 375.722656 C 531.207031 375.394531 530.761719 375.023438 530.351562 374.609375 C 529.945312 374.195312 529.582031 373.746094 529.261719 373.257812 C 528.941406 372.773438 528.671875 372.261719 528.449219 371.722656 C 528.230469 371.1875 528.0625 370.632812 527.949219 370.0625 C 527.839844 369.492188 527.78125 368.914062 527.78125 368.332031 C 527.78125 367.753906 527.839844 367.175781 527.949219 366.605469 C 528.0625 366.035156 528.230469 365.480469 528.449219 364.941406 C 528.671875 364.40625 528.941406 363.894531 529.261719 363.40625 C 529.582031 362.921875 529.945312 362.472656 530.351562 362.058594 C 530.761719 361.644531 531.207031 361.273438 531.6875 360.945312 C 532.164062 360.617188 532.671875 360.339844 533.207031 360.109375 C 533.742188 359.882812 534.292969 359.707031 534.863281 359.585938 C 535.429688 359.464844 536.007812 359.398438 536.585938 359.390625 Z M 536.585938 399.632812 L 903.410156 399.632812 C 903.992188 399.640625 904.566406 399.707031 905.132812 399.828125 C 905.703125 399.949219 906.253906 400.125 906.789062 400.355469 C 907.324219 400.582031 907.828125 400.859375 908.308594 401.1875 C 908.789062 401.515625 909.234375 401.886719 909.640625 402.300781 C 910.046875 402.714844 910.414062 403.167969 910.734375 403.652344 C 911.050781 404.136719 911.324219 404.648438 911.542969 405.1875 C 911.761719 405.722656 911.929688 406.277344 912.042969 406.847656 C 912.152344 407.417969 912.210938 407.992188 912.210938 408.574219 C 912.210938 409.15625 912.152344 409.730469 912.042969 410.300781 C 911.929688 410.871094 911.761719 411.425781 911.542969 411.964844 C 911.324219 412.503906 911.050781 413.015625 910.730469 413.5 C 910.414062 413.984375 910.046875 414.433594 909.640625 414.847656 C 909.234375 415.261719 908.789062 415.632812 908.308594 415.960938 C 907.828125 416.289062 907.320312 416.566406 906.789062 416.796875 C 906.253906 417.023438 905.703125 417.199219 905.132812 417.320312 C 904.566406 417.441406 903.992188 417.507812 903.410156 417.515625 L 536.585938 417.515625 C 536.007812 417.507812 535.433594 417.441406 534.863281 417.320312 C 534.296875 417.199219 533.742188 417.023438 533.210938 416.796875 C 532.675781 416.566406 532.167969 416.289062 531.6875 415.960938 C 531.207031 415.632812 530.765625 415.261719 530.355469 414.847656 C 529.949219 414.433594 529.585938 413.984375 529.265625 413.5 C 528.945312 413.011719 528.675781 412.503906 528.453125 411.964844 C 528.234375 411.425781 528.070312 410.871094 527.957031 410.300781 C 527.84375 409.730469 527.789062 409.15625 527.789062 408.574219 C 527.789062 407.992188 527.84375 407.417969 527.957031 406.847656 C 528.070312 406.277344 528.234375 405.722656 528.453125 405.1875 C 528.675781 404.648438 528.945312 404.136719 529.265625 403.652344 C 529.585938 403.164062 529.949219 402.714844 530.355469 402.300781 C 530.765625 401.886719 531.207031 401.515625 531.6875 401.1875 C 532.167969 400.859375 532.675781 400.582031 533.210938 400.355469 C 533.742188 400.125 534.296875 399.949219 534.863281 399.828125 C 535.433594 399.707031 536.007812 399.640625 536.585938 399.632812 Z M 536.585938 399.632812 " fill-opacity="1" fill-rule="nonzero"/></g><g clip-path="url(#ea8a50f47c)"><path fill="#060607" d="M 544.097656 286.957031 L 896.433594 286.957031 C 900.996094 286.957031 907.523438 278.640625 908.597656 265.136719 C 909.226562 262.355469 908.507812 250.242188 908.777344 247.25 L 531.757812 247.25 C 531.574219 250.296875 531.785156 262.324219 531.9375 265.136719 C 533.011719 278.640625 539.539062 286.957031 544.097656 286.957031 Z M 544.097656 286.957031 " fill-opacity="1" fill-rule="nonzero"/></g><path fill="#060607" d="M 607.457031 478.917969 C 598.777344 486.226562 581.847656 495.554688 583.335938 508.65625 C 583.449219 510.429688 583.765625 512.164062 584.285156 513.863281 C 584.808594 515.5625 585.519531 517.179688 586.425781 518.710938 C 587.328125 520.238281 588.398438 521.644531 589.632812 522.921875 C 590.871094 524.199219 592.238281 525.316406 593.738281 526.269531 C 594.402344 526.628906 594.96875 527.105469 595.433594 527.703125 C 595.898438 528.300781 596.222656 528.96875 596.410156 529.699219 C 596.847656 532.148438 581.308594 543.429688 579.878906 545.230469 C 579.445312 545.613281 579.054688 546.039062 578.703125 546.5 C 578.355469 546.960938 578.050781 547.453125 577.796875 547.972656 C 577.542969 548.496094 577.339844 549.035156 577.1875 549.597656 C 577.039062 550.15625 576.945312 550.726562 576.90625 551.304688 C 576.867188 551.882812 576.882812 552.460938 576.957031 553.035156 C 577.03125 553.609375 577.15625 554.171875 577.339844 554.722656 C 577.523438 555.273438 577.757812 555.800781 578.042969 556.304688 C 578.328125 556.808594 578.660156 557.28125 579.035156 557.722656 C 579.414062 558.164062 579.828125 558.5625 580.285156 558.921875 C 580.738281 559.28125 581.222656 559.59375 581.738281 559.859375 C 582.253906 560.125 582.792969 560.339844 583.347656 560.5 C 583.90625 560.660156 584.472656 560.765625 585.050781 560.816406 C 585.628906 560.867188 586.203125 560.863281 586.78125 560.800781 C 587.359375 560.738281 587.921875 560.621094 588.476562 560.449219 C 589.03125 560.277344 589.5625 560.054688 590.074219 559.78125 C 590.582031 559.507812 591.0625 559.183594 591.511719 558.816406 L 606.226562 546.214844 C 606.894531 545.6875 607.527344 545.121094 608.128906 544.515625 C 608.726562 543.910156 609.289062 543.269531 609.808594 542.597656 C 610.332031 541.921875 610.8125 541.21875 611.25 540.488281 C 611.683594 539.757812 612.078125 539 612.421875 538.222656 C 612.765625 537.445312 613.0625 536.648438 613.3125 535.832031 C 613.5625 535.015625 613.757812 534.1875 613.90625 533.351562 C 614.054688 532.511719 614.152344 531.667969 614.199219 530.816406 C 614.246094 529.964844 614.238281 529.113281 614.179688 528.265625 C 614.125 527.414062 614.015625 526.570312 613.855469 525.734375 C 613.695312 524.894531 613.484375 524.070312 613.226562 523.261719 C 612.964844 522.449219 612.660156 521.65625 612.304688 520.882812 C 611.949219 520.109375 611.546875 519.359375 611.097656 518.632812 C 610.652344 517.90625 610.164062 517.210938 609.632812 516.542969 C 609.101562 515.878906 608.53125 515.246094 607.921875 514.648438 C 607.316406 514.050781 606.675781 513.496094 606 512.976562 C 605.324219 512.457031 604.617188 511.980469 603.886719 511.546875 C 603.210938 511.1875 602.640625 510.707031 602.175781 510.105469 C 601.710938 509.5 601.390625 508.828125 601.214844 508.085938 C 601.324219 507.433594 601.5625 506.832031 601.929688 506.285156 C 602.300781 505.734375 602.765625 505.285156 603.328125 504.933594 L 618.511719 492.980469 C 618.960938 492.613281 619.371094 492.203125 619.738281 491.757812 C 620.109375 491.308594 620.433594 490.832031 620.707031 490.324219 C 620.984375 489.8125 621.210938 489.28125 621.382812 488.726562 C 621.554688 488.175781 621.671875 487.609375 621.734375 487.03125 C 621.800781 486.457031 621.804688 485.878906 621.757812 485.300781 C 621.707031 484.722656 621.605469 484.15625 621.445312 483.597656 C 621.285156 483.042969 621.074219 482.503906 620.808594 481.988281 C 620.546875 481.472656 620.234375 480.984375 619.875 480.53125 C 619.519531 480.074219 619.117188 479.65625 618.679688 479.28125 C 618.238281 478.902344 617.769531 478.570312 617.265625 478.28125 C 616.757812 477.996094 616.234375 477.761719 615.683594 477.578125 C 615.132812 477.394531 614.570312 477.261719 613.996094 477.1875 C 613.421875 477.113281 612.84375 477.097656 612.265625 477.132812 C 611.6875 477.171875 611.117188 477.265625 610.554688 477.410156 C 609.996094 477.558594 609.457031 477.761719 608.933594 478.015625 C 608.414062 478.269531 607.921875 478.570312 607.457031 478.917969 Z M 607.457031 478.917969 " fill-opacity="1" fill-rule="nonzero"/><path fill="#060607" d="M 687.898438 478.917969 L 672.710938 490.875 C 672.355469 491.128906 672.007812 491.394531 671.667969 491.667969 C 671.328125 491.945312 670.996094 492.230469 670.675781 492.527344 C 670.351562 492.824219 670.039062 493.128906 669.738281 493.445312 C 669.433594 493.761719 669.140625 494.085938 668.859375 494.417969 C 668.574219 494.753906 668.304688 495.09375 668.042969 495.445312 C 667.78125 495.796875 667.53125 496.15625 667.292969 496.519531 C 667.050781 496.886719 666.824219 497.261719 666.609375 497.640625 C 666.390625 498.023438 666.1875 498.410156 665.996094 498.800781 C 665.804688 499.195312 665.625 499.59375 665.457031 499.996094 C 665.289062 500.402344 665.132812 500.808594 664.992188 501.222656 C 664.851562 501.636719 664.722656 502.054688 664.605469 502.476562 C 664.488281 502.898438 664.386719 503.324219 664.296875 503.753906 C 664.207031 504.179688 664.128906 504.609375 664.066406 505.042969 C 664.003906 505.476562 663.953125 505.910156 663.917969 506.347656 C 663.882812 506.78125 663.859375 507.21875 663.851562 507.65625 C 663.84375 508.09375 663.847656 508.53125 663.863281 508.96875 C 663.882812 509.40625 663.914062 509.84375 663.960938 510.277344 C 664.003906 510.710938 664.0625 511.144531 664.136719 511.578125 C 664.207031 512.007812 664.292969 512.4375 664.390625 512.863281 C 664.492188 513.289062 664.601562 513.710938 664.726562 514.132812 C 664.851562 514.550781 664.988281 514.964844 665.140625 515.375 C 665.289062 515.789062 665.453125 516.191406 665.628906 516.59375 C 665.804688 516.992188 665.992188 517.390625 666.195312 517.777344 C 666.394531 518.167969 666.605469 518.550781 666.832031 518.925781 C 667.054688 519.300781 667.289062 519.667969 667.535156 520.03125 C 667.785156 520.390625 668.042969 520.746094 668.308594 521.089844 C 668.578125 521.433594 668.859375 521.769531 669.148438 522.097656 C 669.4375 522.425781 669.738281 522.746094 670.046875 523.054688 C 670.355469 523.363281 670.675781 523.664062 671.003906 523.953125 C 671.332031 524.242188 671.667969 524.523438 672.011719 524.789062 C 672.355469 525.058594 672.710938 525.316406 673.070312 525.5625 C 673.433594 525.808594 673.800781 526.046875 674.175781 526.269531 C 677.132812 528.421875 677.886719 530.207031 675.042969 532.625 L 660.316406 545.226562 C 659.871094 545.609375 659.46875 546.03125 659.105469 546.492188 C 658.742188 546.957031 658.429688 547.449219 658.164062 547.972656 C 657.898438 548.496094 657.683594 549.039062 657.527344 549.605469 C 657.367188 550.167969 657.265625 550.746094 657.21875 551.332031 C 657.175781 551.914062 657.1875 552.5 657.257812 553.082031 C 657.328125 553.664062 657.453125 554.234375 657.636719 554.792969 C 657.816406 555.351562 658.050781 555.886719 658.339844 556.398438 C 658.628906 556.910156 658.960938 557.390625 659.34375 557.835938 C 659.726562 558.28125 660.148438 558.6875 660.609375 559.050781 C 661.070312 559.414062 661.5625 559.726562 662.085938 559.992188 C 662.609375 560.257812 663.152344 560.472656 663.71875 560.628906 C 664.285156 560.789062 664.859375 560.890625 665.445312 560.9375 C 666.03125 560.980469 666.613281 560.96875 667.195312 560.898438 C 667.78125 560.832031 668.351562 560.707031 668.90625 560.523438 C 669.464844 560.339844 670 560.105469 670.511719 559.820312 C 671.027344 559.53125 671.503906 559.199219 671.949219 558.816406 L 686.664062 546.214844 C 687.335938 545.6875 687.96875 545.121094 688.566406 544.515625 C 689.167969 543.910156 689.726562 543.269531 690.25 542.597656 C 690.773438 541.921875 691.25 541.21875 691.6875 540.488281 C 692.125 539.757812 692.515625 539 692.863281 538.222656 C 693.207031 537.445312 693.503906 536.648438 693.753906 535.832031 C 694 535.015625 694.199219 534.1875 694.347656 533.351562 C 694.496094 532.511719 694.59375 531.667969 694.640625 530.816406 C 694.683594 529.964844 694.679688 529.113281 694.621094 528.265625 C 694.5625 527.414062 694.457031 526.570312 694.296875 525.734375 C 694.136719 524.894531 693.925781 524.070312 693.667969 523.261719 C 693.40625 522.449219 693.097656 521.65625 692.742188 520.882812 C 692.386719 520.109375 691.984375 519.359375 691.539062 518.632812 C 691.09375 517.90625 690.601562 517.210938 690.070312 516.542969 C 689.539062 515.878906 688.972656 515.246094 688.363281 514.648438 C 687.753906 514.050781 687.113281 513.496094 686.4375 512.976562 C 685.761719 512.457031 685.058594 511.980469 684.324219 511.546875 C 683.65625 511.179688 683.089844 510.699219 682.625 510.097656 C 682.160156 509.496094 681.835938 508.824219 681.652344 508.085938 C 681.761719 507.433594 682 506.832031 682.371094 506.28125 C 682.738281 505.734375 683.203125 505.285156 683.765625 504.933594 L 698.953125 492.980469 C 699.402344 492.613281 699.8125 492.203125 700.183594 491.757812 C 700.550781 491.3125 700.875 490.832031 701.152344 490.324219 C 701.429688 489.8125 701.65625 489.28125 701.828125 488.726562 C 702 488.171875 702.121094 487.609375 702.183594 487.03125 C 702.246094 486.453125 702.253906 485.878906 702.203125 485.300781 C 702.15625 484.722656 702.050781 484.152344 701.890625 483.59375 C 701.734375 483.039062 701.519531 482.5 701.257812 481.984375 C 700.992188 481.464844 700.683594 480.980469 700.324219 480.523438 C 699.964844 480.066406 699.566406 479.652344 699.125 479.273438 C 698.6875 478.894531 698.214844 478.5625 697.707031 478.273438 C 697.203125 477.988281 696.675781 477.753906 696.125 477.570312 C 695.578125 477.386719 695.011719 477.257812 694.4375 477.183594 C 693.863281 477.109375 693.285156 477.089844 692.707031 477.128906 C 692.128906 477.164062 691.558594 477.257812 690.996094 477.40625 C 690.4375 477.558594 689.894531 477.757812 689.375 478.011719 C 688.851562 478.265625 688.359375 478.570312 687.898438 478.917969 Z M 687.898438 478.917969 " fill-opacity="1" fill-rule="nonzero"/><path fill="#060607" d="M 768.335938 478.917969 L 753.148438 490.875 C 752.792969 491.128906 752.445312 491.394531 752.105469 491.667969 C 751.765625 491.945312 751.433594 492.230469 751.113281 492.527344 C 750.792969 492.824219 750.480469 493.128906 750.175781 493.445312 C 749.875 493.761719 749.582031 494.085938 749.296875 494.417969 C 749.015625 494.753906 748.742188 495.09375 748.480469 495.445312 C 748.21875 495.796875 747.96875 496.15625 747.730469 496.519531 C 747.492188 496.886719 747.261719 497.261719 747.046875 497.640625 C 746.832031 498.023438 746.625 498.410156 746.433594 498.800781 C 746.242188 499.195312 746.0625 499.59375 745.894531 499.996094 C 745.726562 500.402344 745.574219 500.808594 745.429688 501.222656 C 745.289062 501.636719 745.160156 502.054688 745.042969 502.476562 C 744.929688 502.898438 744.824219 503.324219 744.734375 503.753906 C 744.644531 504.179688 744.570312 504.609375 744.507812 505.042969 C 744.441406 505.476562 744.394531 505.910156 744.359375 506.347656 C 744.320312 506.78125 744.300781 507.21875 744.289062 507.65625 C 744.28125 508.09375 744.285156 508.53125 744.304688 508.96875 C 744.320312 509.40625 744.351562 509.84375 744.398438 510.277344 C 744.445312 510.710938 744.503906 511.144531 744.574219 511.578125 C 744.644531 512.007812 744.730469 512.4375 744.832031 512.863281 C 744.929688 513.289062 745.039062 513.710938 745.164062 514.132812 C 745.289062 514.550781 745.429688 514.964844 745.578125 515.375 C 745.730469 515.789062 745.894531 516.191406 746.070312 516.59375 C 746.246094 516.992188 746.433594 517.390625 746.632812 517.777344 C 746.832031 518.167969 747.046875 518.550781 747.269531 518.925781 C 747.492188 519.300781 747.730469 519.667969 747.976562 520.03125 C 748.222656 520.390625 748.480469 520.746094 748.75 521.089844 C 749.019531 521.433594 749.296875 521.769531 749.585938 522.097656 C 749.875 522.425781 750.175781 522.746094 750.484375 523.054688 C 750.792969 523.363281 751.113281 523.664062 751.441406 523.953125 C 751.769531 524.242188 752.105469 524.519531 752.449219 524.789062 C 752.796875 525.058594 753.148438 525.316406 753.511719 525.5625 C 753.871094 525.808594 754.242188 526.046875 754.617188 526.269531 C 757.574219 528.421875 758.328125 530.207031 755.480469 532.625 L 740.757812 545.226562 C 740.3125 545.609375 739.90625 546.03125 739.542969 546.492188 C 739.179688 546.953125 738.867188 547.449219 738.601562 547.972656 C 738.332031 548.496094 738.121094 549.039062 737.960938 549.605469 C 737.804688 550.167969 737.703125 550.746094 737.65625 551.332031 C 737.609375 551.917969 737.621094 552.5 737.691406 553.082031 C 737.761719 553.667969 737.886719 554.238281 738.070312 554.796875 C 738.253906 555.355469 738.488281 555.890625 738.773438 556.402344 C 739.0625 556.914062 739.398438 557.390625 739.777344 557.839844 C 740.160156 558.285156 740.582031 558.6875 741.042969 559.050781 C 741.503906 559.414062 742 559.730469 742.523438 559.996094 C 743.046875 560.261719 743.589844 560.472656 744.15625 560.632812 C 744.71875 560.792969 745.296875 560.894531 745.882812 560.9375 C 746.46875 560.984375 747.050781 560.972656 747.632812 560.902344 C 748.21875 560.832031 748.789062 560.707031 749.347656 560.523438 C 749.90625 560.34375 750.441406 560.109375 750.953125 559.820312 C 751.464844 559.53125 751.941406 559.199219 752.390625 558.816406 L 767.105469 546.214844 C 767.773438 545.6875 768.40625 545.121094 769.007812 544.515625 C 769.605469 543.910156 770.167969 543.269531 770.6875 542.597656 C 771.210938 541.921875 771.691406 541.21875 772.128906 540.488281 C 772.5625 539.757812 772.957031 539 773.300781 538.222656 C 773.644531 537.445312 773.941406 536.648438 774.191406 535.832031 C 774.441406 535.015625 774.636719 534.191406 774.785156 533.351562 C 774.933594 532.511719 775.03125 531.667969 775.078125 530.816406 C 775.125 529.964844 775.117188 529.113281 775.058594 528.265625 C 775.003906 527.414062 774.894531 526.570312 774.734375 525.734375 C 774.574219 524.894531 774.363281 524.070312 774.105469 523.261719 C 773.84375 522.449219 773.539062 521.65625 773.183594 520.882812 C 772.824219 520.109375 772.425781 519.359375 771.976562 518.632812 C 771.53125 517.90625 771.042969 517.210938 770.511719 516.542969 C 769.980469 515.878906 769.410156 515.246094 768.800781 514.648438 C 768.195312 514.050781 767.550781 513.496094 766.875 512.976562 C 766.203125 512.457031 765.496094 511.980469 764.761719 511.546875 C 764.09375 511.179688 763.527344 510.699219 763.0625 510.097656 C 762.597656 509.496094 762.273438 508.824219 762.089844 508.085938 C 762.199219 507.433594 762.441406 506.832031 762.808594 506.28125 C 763.175781 505.734375 763.640625 505.285156 764.203125 504.933594 L 779.390625 492.980469 C 779.839844 492.613281 780.25 492.203125 780.617188 491.757812 C 780.988281 491.308594 781.308594 490.832031 781.585938 490.324219 C 781.863281 489.8125 782.085938 489.28125 782.261719 488.726562 C 782.433594 488.175781 782.550781 487.609375 782.613281 487.03125 C 782.675781 486.457031 782.683594 485.878906 782.636719 485.300781 C 782.585938 484.722656 782.480469 484.15625 782.324219 483.597656 C 782.164062 483.042969 781.953125 482.503906 781.6875 481.988281 C 781.421875 481.472656 781.113281 480.988281 780.753906 480.53125 C 780.394531 480.074219 779.996094 479.660156 779.558594 479.28125 C 779.117188 478.902344 778.644531 478.570312 778.140625 478.28125 C 777.636719 477.996094 777.109375 477.761719 776.5625 477.578125 C 776.011719 477.394531 775.449219 477.265625 774.875 477.1875 C 774.300781 477.113281 773.722656 477.097656 773.144531 477.132812 C 772.566406 477.171875 771.996094 477.265625 771.433594 477.414062 C 770.875 477.5625 770.332031 477.761719 769.8125 478.015625 C 769.289062 478.269531 768.796875 478.570312 768.335938 478.917969 Z M 768.335938 478.917969 " fill-opacity="1" fill-rule="nonzero"/><path fill="#060607" d="M 848.773438 478.917969 C 840.097656 486.222656 823.164062 495.558594 824.65625 508.644531 C 824.765625 510.421875 825.082031 512.15625 825.605469 513.859375 C 826.125 515.558594 826.839844 517.171875 827.742188 518.703125 C 828.644531 520.234375 829.714844 521.640625 830.953125 522.917969 C 832.1875 524.199219 833.554688 525.3125 835.054688 526.269531 C 835.71875 526.628906 836.285156 527.105469 836.746094 527.699219 C 837.210938 528.296875 837.535156 528.960938 837.71875 529.691406 C 838.191406 532.132812 822.621094 543.433594 821.195312 545.230469 C 820.765625 545.613281 820.371094 546.039062 820.023438 546.5 C 819.671875 546.960938 819.367188 547.453125 819.113281 547.972656 C 818.859375 548.496094 818.65625 549.035156 818.507812 549.597656 C 818.355469 550.15625 818.261719 550.726562 818.222656 551.304688 C 818.183594 551.882812 818.203125 552.460938 818.273438 553.035156 C 818.347656 553.609375 818.476562 554.171875 818.660156 554.722656 C 818.839844 555.273438 819.074219 555.800781 819.359375 556.304688 C 819.644531 556.808594 819.976562 557.28125 820.351562 557.722656 C 820.730469 558.164062 821.144531 558.5625 821.601562 558.921875 C 822.054688 559.28125 822.542969 559.59375 823.058594 559.859375 C 823.574219 560.125 824.109375 560.339844 824.664062 560.5 C 825.222656 560.660156 825.789062 560.765625 826.367188 560.816406 C 826.945312 560.867188 827.523438 560.863281 828.097656 560.800781 C 828.675781 560.738281 829.242188 560.621094 829.792969 560.449219 C 830.347656 560.28125 830.882812 560.054688 831.390625 559.78125 C 831.902344 559.507812 832.382812 559.183594 832.828125 558.816406 L 847.550781 546.214844 C 848.21875 545.6875 848.851562 545.117188 849.453125 544.511719 C 850.050781 543.90625 850.613281 543.265625 851.132812 542.59375 C 851.65625 541.921875 852.132812 541.21875 852.570312 540.484375 C 853.003906 539.753906 853.394531 539 853.742188 538.21875 C 854.085938 537.441406 854.382812 536.644531 854.628906 535.828125 C 854.878906 535.011719 855.078125 534.1875 855.222656 533.347656 C 855.371094 532.507812 855.46875 531.664062 855.515625 530.8125 C 855.558594 529.960938 855.554688 529.113281 855.496094 528.261719 C 855.4375 527.414062 855.328125 526.570312 855.171875 525.730469 C 855.011719 524.894531 854.800781 524.070312 854.539062 523.261719 C 854.28125 522.449219 853.972656 521.65625 853.617188 520.882812 C 853.261719 520.109375 852.859375 519.359375 852.414062 518.632812 C 851.96875 517.90625 851.476562 517.210938 850.945312 516.546875 C 850.417969 515.878906 849.847656 515.246094 849.238281 514.648438 C 848.632812 514.054688 847.992188 513.496094 847.316406 512.976562 C 846.640625 512.457031 845.9375 511.980469 845.203125 511.546875 C 844.535156 511.179688 843.96875 510.699219 843.503906 510.097656 C 843.039062 509.496094 842.714844 508.824219 842.53125 508.085938 C 842.640625 507.433594 842.878906 506.832031 843.246094 506.28125 C 843.617188 505.734375 844.082031 505.285156 844.644531 504.933594 L 859.832031 492.980469 C 860.277344 492.613281 860.6875 492.203125 861.058594 491.757812 C 861.425781 491.308594 861.75 490.832031 862.023438 490.320312 C 862.300781 489.8125 862.523438 489.28125 862.699219 488.726562 C 862.871094 488.175781 862.988281 487.609375 863.050781 487.035156 C 863.113281 486.457031 863.121094 485.878906 863.070312 485.304688 C 863.023438 484.726562 862.917969 484.15625 862.757812 483.601562 C 862.597656 483.042969 862.386719 482.507812 862.125 481.992188 C 861.859375 481.472656 861.550781 480.988281 861.191406 480.53125 C 860.832031 480.078125 860.433594 479.660156 859.996094 479.28125 C 859.554688 478.902344 859.082031 478.570312 858.578125 478.285156 C 858.074219 478 857.546875 477.765625 857 477.578125 C 856.449219 477.394531 855.886719 477.265625 855.3125 477.191406 C 854.738281 477.117188 854.160156 477.097656 853.582031 477.136719 C 853.003906 477.171875 852.433594 477.265625 851.875 477.414062 C 851.3125 477.5625 850.773438 477.761719 850.25 478.015625 C 849.730469 478.269531 849.238281 478.570312 848.773438 478.917969 Z M 848.773438 478.917969 " fill-opacity="1" fill-rule="nonzero"/></svg>