<svg xmlns="http://www.w3.org/2000/svg" xmlns:xlink="http://www.w3.org/1999/xlink" width="1920" zoomAndPan="magnify" viewBox="0 0 1440 809.999993" height="1080" preserveAspectRatio="xMidYMid meet" version="1.0"><defs><clipPath id="efaa9caa04"><path d="M 725 200.15625 L 904 200.15625 L 904 376 L 725 376 Z M 725 200.15625 " clip-rule="nonzero"/></clipPath></defs><g clip-path="url(#efaa9caa04)"><path fill="#060607" d="M 814.761719 200.394531 C 765.796875 200.394531 725.90625 240.285156 725.90625 289.273438 C 725.90625 298.515625 727.320312 307.460938 729.96875 315.859375 C 736.835938 315.933594 743.71875 316.058594 750.660156 316.324219 C 747.140625 308.03125 745.210938 298.882812 745.210938 289.269531 C 745.210938 250.738281 776.230469 219.6875 814.761719 219.6875 C 853.289062 219.6875 884.363281 250.738281 884.363281 289.269531 C 884.363281 322.648438 861.019531 350.375 829.703125 357.1875 C 832.796875 363.105469 835.449219 369.082031 837.925781 375.046875 C 875.738281 364.8125 903.667969 330.226562 903.667969 289.269531 C 903.667969 240.285156 863.746094 200.394531 814.761719 200.394531 Z M 814.761719 200.394531 " fill-opacity="1" fill-rule="evenodd"/></g><path fill="#060607" d="M 801.300781 264.867188 L 810.324219 264.867188 C 817.035156 264.867188 821.503906 265.042969 823.726562 265.488281 C 835.523438 267.734375 838.070312 284.488281 826.234375 289.621094 C 823.800781 290.640625 818.847656 291.058594 811.484375 291.058594 L 801.300781 291.058594 Z M 782.667969 249.230469 L 782.667969 318.859375 C 789.140625 319.527344 796.128906 321.5625 801.308594 324.285156 L 801.308594 306.746094 L 813.472656 306.746094 C 821.898438 306.746094 828.34375 306.292969 832.777344 305.410156 C 836.050781 304.691406 839.265625 303.25 842.433594 301.070312 C 845.609375 298.871094 848.234375 295.816406 850.296875 291.984375 C 852.351562 288.085938 853.386719 283.304688 853.386719 277.660156 C 853.386719 270.324219 851.605469 264.300781 848.035156 259.699219 C 844.46875 255.058594 840.027344 252.042969 834.730469 250.652344 C 831.289062 249.734375 823.921875 249.242188 812.550781 249.242188 L 782.667969 249.242188 Z M 782.667969 249.230469 " fill-opacity="1" fill-rule="nonzero"/><path fill="#060607" d="M 766.191406 463.640625 L 649.488281 463.640625 C 644.535156 463.640625 643.414062 469.359375 645.703125 474.910156 C 650.511719 486.605469 662.847656 494.464844 675.410156 494.464844 L 740.28125 494.464844 C 752.839844 494.464844 765.210938 486.605469 769.984375 474.910156 C 772.261719 469.359375 771.097656 464.351562 766.191406 463.640625 Z M 574.886719 463.167969 C 572.753906 469.65625 570.324219 482.472656 581.839844 486.683594 C 591.316406 490.15625 611.207031 492.628906 621.8125 494.238281 C 632 495.753906 634.550781 489.75 631 480.757812 C 624.386719 464.105469 609.472656 460.59375 595.449219 458.191406 C 581.445312 455.785156 576.445312 458.308594 574.886719 463.167969 Z M 820.230469 458.191406 C 806.230469 460.59375 791.289062 464.105469 784.699219 480.757812 C 781.132812 489.75 783.6875 495.753906 793.894531 494.238281 C 804.5 492.628906 824.402344 490.15625 833.835938 486.683594 C 845.355469 482.472656 842.929688 469.65625 840.820312 463.167969 C 839.238281 458.308594 834.230469 455.785156 820.230469 458.191406 Z M 707.84375 346.015625 C 685.957031 346.039062 662.324219 346.808594 642.308594 348.171875 C 634.71875 348.6875 627.761719 352.78125 623.097656 360.367188 C 613.0625 376.589844 604.144531 391.882812 598.519531 408.875 C 598.519531 408.875 661.257812 415.148438 707.84375 415.148438 C 754.421875 415.148438 817.183594 408.875 817.183594 408.875 C 811.53125 391.882812 802.613281 376.589844 792.605469 360.367188 C 787.921875 352.78125 780.957031 348.6875 773.375 348.171875 C 753.382812 346.808594 729.722656 346.039062 707.84375 346.015625 Z M 707.84375 330.75 C 733.257812 330.75 759.203125 330.628906 784.03125 334.097656 C 795.53125 335.679688 802.96875 342.453125 808.296875 350.277344 C 820.386719 368.121094 828.191406 386.949219 835.027344 406.003906 L 865.460938 406.003906 C 873.933594 406.003906 878.988281 412.59375 876.800781 420.769531 C 874.378906 429.8125 871.625 434.273438 858.347656 437.351562 L 853.265625 438.539062 C 857.226562 446.101562 860.125 454.074219 860.125 461.207031 L 860.125 519.765625 C 860.125 529.574219 853.339844 537.820312 845.460938 540.925781 L 845.460938 568.324219 C 845.460938 573.679688 841.175781 577.984375 835.820312 577.984375 L 808.445312 577.984375 C 803.089844 577.984375 798.785156 573.679688 798.785156 568.324219 L 798.785156 542.285156 L 616.933594 542.285156 L 616.933594 568.324219 C 616.933594 573.679688 612.644531 577.984375 607.292969 577.984375 L 579.914062 577.984375 C 574.5625 577.984375 570.246094 573.679688 570.246094 568.324219 L 570.246094 540.925781 C 562.367188 537.820312 555.554688 529.574219 555.554688 519.765625 L 555.554688 461.207031 C 555.554688 454.070312 558.480469 446.101562 562.414062 438.539062 L 557.363281 437.351562 C 544.078125 434.277344 541.332031 429.820312 538.898438 420.769531 C 536.699219 412.59375 541.75 406.003906 550.25 406.003906 L 580.679688 406.003906 C 587.488281 386.949219 595.292969 368.121094 607.417969 350.277344 C 612.734375 342.453125 620.144531 335.683594 631.667969 334.097656 C 656.5 330.628906 682.421875 330.75 707.84375 330.75 Z M 707.84375 330.75 " fill-opacity="1" fill-rule="evenodd"/></svg>