<svg xmlns="http://www.w3.org/2000/svg" xmlns:xlink="http://www.w3.org/1999/xlink" width="1920" zoomAndPan="magnify" viewBox="0 0 1440 809.999993" height="1080" preserveAspectRatio="xMidYMid meet" version="1.0"><defs><clipPath id="e625f612be"><path d="M 540.15625 130 L 900 130 L 900 680.625 L 540.15625 680.625 Z M 540.15625 130 " clip-rule="nonzero"/></clipPath></defs><g clip-path="url(#e625f612be)"><path fill="#000000" d="M 707.425781 220.214844 L 706.074219 359.757812 C 681.585938 353.332031 663.84375 346.972656 652.84375 340.679688 C 642.066406 334.386719 633.957031 326.683594 628.515625 317.570312 C 623.074219 308.457031 620.417969 297.382812 620.542969 284.34375 C 620.933594 244.128906 649.894531 222.753906 707.417969 220.214844 Z M 746.605469 422.46875 C 777.933594 430.949219 798.984375 438.335938 809.761719 444.628906 C 820.539062 450.699219 828.761719 458.402344 834.421875 467.738281 C 840.082031 477.074219 842.839844 488.925781 842.703125 503.289062 C 842.484375 525.828125 833.90625 543.421875 816.976562 556.078125 C 800.265625 568.734375 776.308594 575.90625 745.105469 577.59375 Z M 708.300781 130.058594 L 707.878906 173.476562 C 662.082031 175.023438 626.589844 185.398438 601.410156 204.601562 C 576.453125 223.585938 563.808594 250.203125 563.480469 284.457031 C 563.320312 300.585938 565.289062 314.417969 569.378906 325.949219 C 573.25 337.476562 579.78125 348.371094 588.96875 358.625 C 597.941406 368.65625 609.910156 377.613281 624.871094 385.492188 C 639.617188 393.367188 666.511719 402.359375 705.5625 412.460938 L 703.972656 576.863281 C 672.585938 574.570312 648.109375 566.707031 630.546875 553.28125 C 613.203125 539.851562 601.894531 519.964844 596.621094 493.613281 L 540.105469 505.332031 C 554.855469 580.835938 609.320312 621.03125 703.496094 625.917969 L 702.976562 679.613281 L 744.109375 680.011719 L 744.632812 626.316406 C 793.753906 624.359375 831.800781 612.464844 858.777344 590.625 C 885.75 568.789062 899.414062 539.636719 899.769531 503.175781 C 899.941406 485.277344 897.550781 469.675781 892.589844 456.367188 C 887.632812 443.058594 880.335938 431.5 870.699219 421.679688 C 861.0625 411.863281 847.875 403.007812 831.144531 395.109375 C 814.628906 387.214844 786.625 378.4375 747.128906 368.773438 L 748.558594 221.273438 C 774.410156 223.957031 794.023438 231.21875 807.402344 243.058594 C 820.78125 254.679688 829.582031 270.898438 833.804688 291.710938 L 891.632812 281.332031 C 882.6875 245.886719 867.015625 219.65625 844.621094 202.644531 C 822.222656 185.855469 790.355469 176.265625 749.015625 173.875 L 749.4375 130.453125 Z M 708.300781 130.058594 " fill-opacity="1" fill-rule="nonzero"/></g></svg>