<svg xmlns="http://www.w3.org/2000/svg" xmlns:xlink="http://www.w3.org/1999/xlink" width="500" zoomAndPan="magnify" viewBox="0 0 375 374.999991" height="500" preserveAspectRatio="xMidYMid meet" version="1.0"><defs><clipPath id="aa8bc72257"><path d="M 96.960938 96.960938 L 277.710938 96.960938 L 277.710938 277.710938 L 96.960938 277.710938 Z M 96.960938 96.960938 " clip-rule="nonzero"/></clipPath></defs><g clip-path="url(#aa8bc72257)"><path fill="#000000" d="M 187.261719 277.613281 C 137.441406 277.613281 96.910156 237.082031 96.910156 187.261719 C 96.910156 137.445312 137.441406 96.910156 187.261719 96.910156 C 237.082031 96.910156 277.613281 137.441406 277.613281 187.261719 C 277.613281 237.082031 237.082031 277.613281 187.261719 277.613281 Z M 187.261719 111.289062 C 145.371094 111.289062 111.289062 145.371094 111.289062 187.261719 C 111.289062 229.15625 145.371094 263.234375 187.261719 263.234375 C 229.152344 263.234375 263.234375 229.15625 263.234375 187.261719 C 263.234375 145.371094 229.152344 111.289062 187.261719 111.289062 Z M 187.261719 111.289062 " fill-opacity="1" fill-rule="nonzero"/></g><path fill="#000000" d="M 185.515625 197.230469 C 178.082031 191.121094 173.121094 183.578125 170.511719 179.289062 L 168.566406 175.621094 C 169.246094 174.890625 174.433594 169.332031 176.683594 166.320312 C 179.507812 162.535156 175.414062 159.113281 175.414062 159.113281 C 175.414062 159.113281 163.886719 147.585938 161.257812 145.300781 C 158.628906 143.007812 155.605469 144.28125 155.605469 144.28125 C 150.085938 147.847656 144.359375 150.949219 144.019531 165.867188 C 144.003906 179.835938 154.605469 194.238281 166.070312 205.394531 C 177.554688 217.984375 193.324219 230.609375 208.566406 230.59375 C 223.480469 230.257812 226.582031 224.53125 230.148438 219.011719 C 230.148438 219.011719 231.421875 215.988281 229.132812 213.359375 C 226.847656 210.730469 215.316406 199.199219 215.316406 199.199219 C 215.316406 199.199219 211.898438 195.101562 208.113281 197.929688 C 205.289062 200.039062 200.222656 204.734375 199.003906 205.871094 C 199.003906 205.871094 190.527344 201.351562 185.515625 197.230469 Z M 185.515625 197.230469 " fill-opacity="1" fill-rule="nonzero"/></svg>