<svg xmlns="http://www.w3.org/2000/svg" xmlns:xlink="http://www.w3.org/1999/xlink" width="500" zoomAndPan="magnify" viewBox="0 0 375 374.999991" height="500" preserveAspectRatio="xMidYMid meet" version="1.0"><defs><clipPath id="8bcf2f64f9"><path d="M 145 229 L 230 229 L 230 268.371094 L 145 268.371094 Z M 145 229 " clip-rule="nonzero"/></clipPath><clipPath id="05124ada3c"><path d="M 135.207031 106.371094 L 239 106.371094 L 239 247 L 135.207031 247 Z M 135.207031 106.371094 " clip-rule="nonzero"/></clipPath></defs><g clip-path="url(#8bcf2f64f9)"><path fill="#000000" d="M 161.707031 238.921875 C 162.269531 238.632812 162.851562 238.359375 163.449219 238.097656 C 165.601562 237.152344 166.582031 234.636719 165.640625 232.480469 C 164.695312 230.324219 162.183594 229.347656 160.035156 230.289062 C 159.285156 230.617188 158.5625 230.960938 157.839844 231.328125 C 149.851562 235.425781 145.449219 240.898438 145.449219 246.734375 C 145.449219 252.605469 149.851562 258.082031 157.847656 262.164062 C 165.691406 266.167969 176.132812 268.371094 187.242188 268.371094 C 198.355469 268.371094 208.792969 266.167969 216.632812 262.164062 C 224.628906 258.082031 229.03125 252.601562 229.03125 246.734375 C 229.03125 240.902344 224.628906 235.429688 216.632812 231.324219 C 215.8125 230.902344 214.960938 230.503906 214.085938 230.125 C 211.921875 229.195312 209.421875 230.191406 208.492188 232.351562 C 207.5625 234.515625 208.558594 237.023438 210.714844 237.953125 C 211.421875 238.261719 212.105469 238.582031 212.757812 238.910156 C 218.488281 241.851562 220.519531 244.964844 220.519531 246.734375 C 220.519531 248.523438 218.488281 251.644531 212.769531 254.566406 C 206.101562 257.972656 197.035156 259.84375 187.242188 259.84375 C 177.449219 259.84375 168.382812 257.972656 161.714844 254.566406 C 155.992188 251.648438 153.964844 248.523438 153.964844 246.734375 C 153.960938 244.964844 155.992188 241.855469 161.707031 238.921875 Z M 161.707031 238.921875 " fill-opacity="1" fill-rule="nonzero"/></g><g clip-path="url(#05124ada3c)"><path fill="#000000" d="M 187.804688 106.386719 C 187.6875 106.378906 187.574219 106.371094 187.457031 106.371094 L 187.027344 106.371094 C 186.910156 106.371094 186.796875 106.378906 186.683594 106.386719 C 158.640625 106.800781 135.878906 129.910156 135.878906 157.96875 C 135.4375 185.882812 156.761719 211.429688 172.335938 230.082031 C 176.902344 235.550781 180.84375 240.28125 183.515625 244.191406 C 184.304688 245.355469 185.621094 246.050781 187.03125 246.050781 L 187.457031 246.050781 C 188.867188 246.050781 190.183594 245.355469 190.976562 244.191406 C 193.640625 240.277344 197.585938 235.550781 202.152344 230.082031 C 217.722656 211.429688 239.046875 185.878906 238.605469 158.035156 C 238.605469 129.910156 215.84375 106.804688 187.804688 106.386719 Z M 195.621094 224.613281 C 192.496094 228.359375 189.648438 231.765625 187.242188 234.878906 C 184.832031 231.765625 181.992188 228.359375 178.863281 224.613281 C 164.148438 206.988281 144 182.84375 144.390625 158.035156 C 144.390625 134.464844 163.53125 115.121094 187.066406 114.90625 C 187.125 114.90625 187.183594 114.90625 187.242188 114.902344 C 187.300781 114.90625 187.359375 114.90625 187.417969 114.90625 C 210.949219 115.121094 230.09375 134.464844 230.09375 158.101562 C 230.484375 182.84375 210.335938 206.984375 195.621094 224.613281 Z M 195.621094 224.613281 " fill-opacity="1" fill-rule="nonzero"/></g><path fill="#000000" d="M 187.242188 139.199219 C 176.839844 139.3125 168.429688 147.703125 168.429688 158.042969 C 168.429688 168.382812 176.832031 176.769531 187.242188 176.882812 C 197.652344 176.769531 206.050781 168.382812 206.050781 158.042969 C 206.050781 147.703125 197.644531 139.3125 187.242188 139.199219 Z M 187.242188 139.199219 " fill-opacity="1" fill-rule="nonzero"/></svg>