<svg xmlns="http://www.w3.org/2000/svg" xmlns:xlink="http://www.w3.org/1999/xlink" width="1920" zoomAndPan="magnify" viewBox="0 0 1440 809.999993" height="1080" preserveAspectRatio="xMidYMid meet" version="1.0"><defs><clipPath id="8041b4916d"><path d="M 577.527344 262.527344 L 862.527344 262.527344 L 862.527344 547.527344 L 577.527344 547.527344 Z M 577.527344 262.527344 " clip-rule="nonzero"/></clipPath></defs><g clip-path="url(#8041b4916d)"><path fill="#060607" d="M 720 547.46875 C 641.3125 547.46875 577.527344 483.683594 577.527344 405 C 577.527344 326.3125 641.3125 262.527344 720 262.527344 C 798.683594 262.527344 862.46875 326.3125 862.46875 405 C 862.46875 483.683594 798.683594 547.46875 720 547.46875 Z M 720 547.46875 " fill-opacity="1" fill-rule="nonzero"/><path fill="#060607" d="M 720 262.527344 C 641.320312 262.527344 577.527344 326.320312 577.527344 405 C 577.527344 483.675781 641.320312 547.46875 720 547.46875 C 798.675781 547.46875 862.46875 483.675781 862.46875 405 C 862.46875 326.320312 798.675781 262.527344 720 262.527344 Z M 720 530.988281 C 650.355469 530.988281 594.007812 474.640625 594.007812 405 C 594.007812 335.355469 650.355469 279.007812 720 279.007812 C 789.640625 279.007812 845.988281 335.355469 845.988281 405 C 845.988281 474.640625 789.640625 530.988281 720 530.988281 Z M 720 530.988281 " fill-opacity="1" fill-rule="nonzero"/></g><path fill="#ffffff" d="M 736.328125 461.175781 C 736.328125 461.707031 736.300781 462.242188 736.25 462.769531 C 736.195312 463.300781 736.117188 463.828125 736.011719 464.347656 C 735.910156 464.871094 735.777344 465.386719 735.625 465.898438 C 735.46875 466.40625 735.289062 466.910156 735.085938 467.402344 C 734.878906 467.894531 734.652344 468.375 734.398438 468.84375 C 734.148438 469.3125 733.871094 469.769531 733.574219 470.210938 C 733.277344 470.65625 732.960938 471.082031 732.621094 471.496094 C 732.28125 471.90625 731.921875 472.300781 731.542969 472.679688 C 731.167969 473.054688 730.769531 473.410156 730.355469 473.75 C 729.945312 474.085938 729.515625 474.40625 729.070312 474.699219 C 728.625 474.996094 728.167969 475.269531 727.695312 475.519531 C 727.222656 475.773438 726.742188 476 726.246094 476.203125 C 725.753906 476.40625 725.25 476.585938 724.738281 476.742188 C 724.226562 476.894531 723.707031 477.027344 723.183594 477.128906 C 722.660156 477.234375 722.132812 477.3125 721.597656 477.363281 C 721.066406 477.414062 720.535156 477.441406 720 477.441406 C 719.464844 477.441406 718.929688 477.414062 718.398438 477.363281 C 717.867188 477.3125 717.335938 477.234375 716.8125 477.128906 C 716.289062 477.027344 715.769531 476.894531 715.257812 476.742188 C 714.746094 476.585938 714.242188 476.40625 713.75 476.203125 C 713.253906 476 712.773438 475.773438 712.300781 475.519531 C 711.828125 475.269531 711.371094 474.996094 710.925781 474.699219 C 710.480469 474.40625 710.054688 474.085938 709.640625 473.75 C 709.226562 473.410156 708.832031 473.054688 708.453125 472.679688 C 708.074219 472.300781 707.714844 471.90625 707.375 471.496094 C 707.035156 471.082031 706.71875 470.65625 706.421875 470.214844 C 706.125 469.769531 705.851562 469.3125 705.597656 468.84375 C 705.347656 468.375 705.117188 467.894531 704.914062 467.402344 C 704.707031 466.910156 704.527344 466.40625 704.371094 465.898438 C 704.21875 465.386719 704.089844 464.871094 703.984375 464.347656 C 703.878906 463.828125 703.800781 463.300781 703.75 462.769531 C 703.695312 462.242188 703.667969 461.707031 703.667969 461.175781 C 703.667969 460.644531 703.695312 460.113281 703.75 459.582031 C 703.800781 459.050781 703.878906 458.523438 703.984375 458.003906 C 704.089844 457.480469 704.21875 456.964844 704.371094 456.453125 C 704.527344 455.945312 704.707031 455.445312 704.914062 454.953125 C 705.117188 454.460938 705.347656 453.976562 705.597656 453.507812 C 705.851562 453.039062 706.125 452.582031 706.421875 452.140625 C 706.71875 451.695312 707.035156 451.269531 707.375 450.855469 C 707.714844 450.445312 708.074219 450.050781 708.453125 449.675781 C 708.832031 449.296875 709.226562 448.941406 709.640625 448.601562 C 710.054688 448.265625 710.480469 447.949219 710.925781 447.652344 C 711.371094 447.355469 711.828125 447.082031 712.300781 446.832031 C 712.773438 446.578125 713.253906 446.351562 713.75 446.148438 C 714.242188 445.945312 714.746094 445.765625 715.257812 445.609375 C 715.769531 445.457031 716.289062 445.328125 716.8125 445.222656 C 717.335938 445.117188 717.867188 445.039062 718.398438 444.988281 C 718.929688 444.9375 719.464844 444.910156 720 444.910156 C 720.535156 444.910156 721.066406 444.9375 721.597656 444.988281 C 722.132812 445.039062 722.660156 445.117188 723.183594 445.222656 C 723.707031 445.328125 724.226562 445.457031 724.738281 445.609375 C 725.25 445.765625 725.753906 445.945312 726.246094 446.148438 C 726.742188 446.351562 727.222656 446.578125 727.695312 446.832031 C 728.167969 447.082031 728.625 447.355469 729.070312 447.652344 C 729.515625 447.949219 729.945312 448.265625 730.355469 448.601562 C 730.769531 448.941406 731.167969 449.296875 731.542969 449.675781 C 731.921875 450.050781 732.28125 450.445312 732.621094 450.855469 C 732.960938 451.269531 733.277344 451.695312 733.574219 452.140625 C 733.871094 452.582031 734.148438 453.039062 734.398438 453.507812 C 734.652344 453.976562 734.878906 454.460938 735.085938 454.953125 C 735.289062 455.445312 735.46875 455.945312 735.625 456.453125 C 735.777344 456.964844 735.910156 457.480469 736.011719 458.003906 C 736.117188 458.523438 736.195312 459.050781 736.25 459.582031 C 736.300781 460.113281 736.328125 460.644531 736.328125 461.175781 Z M 736.328125 461.175781 " fill-opacity="1" fill-rule="nonzero"/><path fill="#ffffff" d="M 622.824219 372.652344 C 617.898438 377.558594 617.898438 385.519531 622.824219 390.429688 C 627.75 395.335938 635.738281 395.335938 640.667969 390.429688 C 684.480469 346.785156 755.515625 346.785156 799.328125 390.429688 C 804.253906 395.335938 812.246094 395.335938 817.175781 390.429688 C 822.101562 385.519531 822.101562 377.5625 817.175781 372.652344 C 763.503906 319.191406 676.492188 319.191406 622.824219 372.652344 Z M 622.824219 372.652344 " fill-opacity="1" fill-rule="nonzero"/><path fill="#ffffff" d="M 649.589844 399.316406 C 644.664062 404.226562 644.664062 412.183594 649.589844 417.09375 C 654.515625 422.003906 662.503906 422.003906 667.433594 417.09375 C 696.464844 388.175781 743.53125 388.175781 772.558594 417.09375 C 777.488281 422.003906 785.476562 422.003906 790.40625 417.09375 C 795.332031 412.1875 795.332031 404.226562 790.40625 399.316406 C 751.519531 360.582031 688.476562 360.582031 649.589844 399.316406 Z M 649.589844 399.316406 " fill-opacity="1" fill-rule="nonzero"/><path fill="#ffffff" d="M 676.359375 425.980469 C 671.429688 430.890625 671.429688 438.847656 676.359375 443.757812 C 681.285156 448.667969 689.273438 448.667969 694.203125 443.757812 C 708.449219 429.566406 731.546875 429.566406 745.792969 443.757812 C 750.722656 448.667969 758.710938 448.667969 763.640625 443.757812 C 768.570312 438.851562 768.566406 430.890625 763.640625 425.980469 C 739.535156 401.972656 700.457031 401.972656 676.359375 425.980469 Z M 676.359375 425.980469 " fill-opacity="1" fill-rule="nonzero"/></svg>