<svg xmlns="http://www.w3.org/2000/svg" xmlns:xlink="http://www.w3.org/1999/xlink" width="1920" zoomAndPan="magnify" viewBox="0 0 1440 809.999993" height="1080" preserveAspectRatio="xMidYMid meet" version="1.0"><defs><clipPath id="22f48ff1c4"><path d="M 472.039062 65 L 967.789062 65 L 967.789062 749.695312 L 472.039062 749.695312 Z M 472.039062 65 " clip-rule="nonzero"/></clipPath></defs><g clip-path="url(#22f48ff1c4)"><path fill="#271629" d="M 472.039062 65.679688 L 472.039062 1429.234375 L 1447.589844 1429.234375 L 1447.589844 65.679688 Z M 1403.246094 746.347656 L 970.898438 746.347656 L 970.898438 110.023438 L 1403.246094 110.023438 Z M 948.730469 110.023438 L 948.730469 746.347656 L 516.382812 746.347656 L 516.382812 110.023438 Z M 516.382812 1384.890625 L 516.382812 768.519531 L 948.730469 768.519531 L 948.730469 1384.890625 Z M 970.898438 1384.890625 L 970.898438 768.519531 L 1403.246094 768.519531 L 1403.246094 1384.890625 Z M 970.898438 1384.890625 " fill-opacity="1" fill-rule="nonzero"/></g><path fill="#271629" d="M 641.527344 316.09375 L 654.378906 312.652344 L 692.785156 456.152344 L 679.9375 459.589844 Z M 641.527344 316.09375 " fill-opacity="1" fill-rule="nonzero"/><path fill="#271629" d="M 692.558594 316.375 L 705.410156 312.933594 L 743.816406 456.433594 L 730.96875 459.871094 Z M 692.558594 316.375 " fill-opacity="1" fill-rule="nonzero"/></svg>