<svg xmlns="http://www.w3.org/2000/svg" xmlns:xlink="http://www.w3.org/1999/xlink" width="1920" zoomAndPan="magnify" viewBox="0 0 1440 809.999993" height="1080" preserveAspectRatio="xMidYMid meet" version="1.0"><defs><clipPath id="11571abaaa"><path d="M 496.765625 180 L 943 180 L 943 631 L 496.765625 631 Z M 496.765625 180 " clip-rule="nonzero"/></clipPath></defs><g clip-path="url(#11571abaaa)"><path fill="#271629" d="M 656.996094 543.171875 L 767.863281 506.199219 L 657.148438 506.199219 C 652.332031 506.199219 648.429688 502.300781 648.429688 497.480469 C 648.429688 492.65625 652.332031 488.757812 657.148438 488.757812 L 774.679688 488.757812 C 782.699219 488.757812 789.464844 494.519531 790.792969 502.445312 C 792.117188 510.433594 787.488281 518.074219 779.785156 520.613281 L 662.339844 559.78125 C 660.414062 560.363281 658.746094 560.613281 657.144531 560.613281 C 652.328125 560.613281 648.425781 556.707031 648.425781 551.890625 C 648.429688 547.125 652.261719 543.25 656.996094 543.171875 Z M 778.777344 594.136719 C 778.59375 594.335938 759.003906 613.367188 720.867188 613.367188 C 688.28125 613.367188 669.253906 599.527344 664.230469 595.335938 L 779.917969 556.785156 C 784.480469 555.273438 786.953125 550.332031 785.441406 545.757812 C 783.910156 541.183594 778.984375 538.75 774.402344 540.25 L 656.964844 579.378906 C 651.578125 581.15625 647.457031 585.671875 646.179688 591.132812 C 644.886719 596.597656 646.554688 602.464844 650.503906 606.425781 C 651.492188 607.421875 675.183594 630.808594 720.867188 630.808594 C 766.480469 630.808594 790.175781 607.421875 791.160156 606.425781 C 794.535156 603.011719 794.5 597.523438 791.109375 594.125 C 787.707031 590.734375 782.1875 590.746094 778.777344 594.136719 Z M 719.75 198.820312 C 645.941406 198.820312 585.886719 258.839844 585.886719 332.621094 C 585.886719 369.90625 605.285156 398.742188 622.539062 424.40625 C 634.414062 441.972656 644.648438 457.144531 644.648438 469.746094 C 644.648438 474.566406 648.550781 478.464844 653.367188 478.464844 C 658.183594 478.464844 662.089844 474.5625 662.089844 469.746094 C 662.089844 451.804688 650.457031 434.578125 636.878906 414.457031 C 621.140625 391.078125 603.328125 364.582031 603.328125 332.621094 C 603.328125 268.457031 655.554688 216.257812 719.75 216.257812 C 783.910156 216.257812 836.097656 268.457031 836.097656 332.621094 C 836.097656 364.632812 818.25 391.144531 802.511719 414.523438 C 789.023438 434.5 777.371094 451.761719 777.371094 469.746094 C 777.371094 474.566406 781.273438 478.464844 786.089844 478.464844 C 790.90625 478.464844 794.808594 474.5625 794.808594 469.746094 C 794.808594 457.089844 805.082031 441.890625 816.96875 424.273438 C 834.105469 398.816406 853.539062 369.964844 853.539062 332.621094 C 853.539062 258.839844 793.515625 198.820312 719.75 198.820312 Z M 726.183594 255.210938 C 726.183594 250.390625 722.28125 246.492188 717.464844 246.492188 C 671.199219 246.492188 633.578125 284.125 633.578125 330.390625 C 633.578125 335.210938 637.480469 339.109375 642.296875 339.109375 C 647.121094 339.109375 651.015625 335.207031 651.015625 330.390625 C 651.015625 293.742188 680.828125 263.9375 717.464844 263.9375 C 722.28125 263.933594 726.183594 260.035156 726.183594 255.210938 Z M 569.464844 332.621094 C 569.464844 327.796875 565.5625 323.898438 560.746094 323.898438 L 505.25 323.898438 C 500.425781 323.898438 496.527344 327.796875 496.527344 332.621094 C 496.527344 337.441406 500.425781 341.339844 505.25 341.339844 L 560.746094 341.339844 C 565.5625 341.339844 569.464844 337.441406 569.464844 332.621094 Z M 934.191406 323.898438 L 878.679688 323.898438 C 873.855469 323.898438 869.960938 327.796875 869.960938 332.621094 C 869.960938 337.441406 873.855469 341.339844 878.679688 341.339844 L 934.191406 341.339844 C 939.015625 341.339844 942.914062 337.4375 942.914062 332.621094 C 942.914062 327.796875 939.007812 323.898438 934.191406 323.898438 Z M 594.570312 229.230469 C 596.121094 230.351562 597.910156 230.890625 599.699219 230.890625 C 602.390625 230.890625 605.042969 229.648438 606.75 227.296875 C 609.582031 223.398438 608.726562 217.941406 604.828125 215.109375 L 559.929688 182.496094 C 556.042969 179.675781 550.578125 180.507812 547.753906 184.429688 C 544.925781 188.332031 545.777344 193.78125 549.679688 196.617188 Z M 594.570312 436.058594 L 549.667969 468.671875 C 545.765625 471.507812 544.917969 476.957031 547.742188 480.859375 C 549.449219 483.210938 552.101562 484.453125 554.792969 484.453125 C 556.582031 484.453125 558.371094 483.914062 559.917969 482.792969 L 604.820312 450.179688 C 608.722656 447.34375 609.570312 441.894531 606.742188 437.992188 C 603.90625 434.066406 598.457031 433.253906 594.570312 436.058594 Z M 839.742188 230.890625 C 841.53125 230.890625 843.320312 230.355469 844.871094 229.230469 L 889.773438 196.621094 C 893.675781 193.789062 894.523438 188.335938 891.699219 184.433594 C 888.871094 180.515625 883.402344 179.683594 879.523438 182.5 L 834.621094 215.113281 C 830.71875 217.949219 829.871094 223.398438 832.695312 227.300781 C 834.398438 229.648438 837.050781 230.890625 839.742188 230.890625 Z M 844.871094 436.058594 C 841.007812 433.246094 835.535156 434.066406 832.695312 437.992188 C 829.867188 441.894531 830.71875 447.34375 834.621094 450.179688 L 879.523438 482.792969 C 881.070312 483.914062 882.859375 484.453125 884.648438 484.453125 C 887.339844 484.453125 889.992188 483.210938 891.699219 480.859375 C 894.527344 476.957031 893.675781 471.507812 889.773438 468.671875 Z M 844.871094 436.058594 " fill-opacity="1" fill-rule="nonzero"/></g></svg>