<svg xmlns="http://www.w3.org/2000/svg" xmlns:xlink="http://www.w3.org/1999/xlink" width="1920" zoomAndPan="magnify" viewBox="0 0 1440 809.999993" height="1080" preserveAspectRatio="xMidYMid meet" version="1.0"><defs><clipPath id="c876a2d2a9"><path d="M 285.644531 206.792969 L 1154.144531 206.792969 L 1154.144531 603 L 285.644531 603 Z M 285.644531 206.792969 " clip-rule="nonzero"/></clipPath></defs><g clip-path="url(#c876a2d2a9)"><path fill="#1d1d1b" d="M 1154.140625 576.261719 C 1154.15625 575.308594 1154.164062 574.367188 1154.164062 573.433594 C 1154.171875 572.035156 1154.1875 570.648438 1154.242188 569.304688 C 1154.242188 569.210938 1154.242188 569.117188 1154.242188 569.023438 C 1154.242188 568.945312 1154.242188 568.859375 1154.242188 568.78125 C 1154.164062 430.304688 1154.242188 291.867188 1154.203125 153.394531 C 1154.320312 145.683594 1153.316406 136.847656 1146.621094 131.886719 C 1140.722656 126.601562 1132.332031 127.363281 1124.992188 127.042969 C 1048.238281 127.207031 971.488281 126.964844 894.734375 127.160156 C 883.59375 126.476562 872.339844 134.945312 872.132812 146.53125 C 871.003906 165.253906 872.015625 184.0625 871.734375 202.785156 C 818.945312 202.871094 766.164062 202.824219 713.390625 202.839844 C 660.617188 202.824219 607.835938 202.871094 555.050781 202.785156 C 554.765625 184.0625 555.777344 165.253906 554.648438 146.53125 C 554.445312 134.953125 543.1875 126.476562 532.050781 127.160156 C 455.296875 126.964844 378.550781 127.207031 301.796875 127.042969 C 294.449219 127.363281 286.058594 126.59375 280.171875 131.886719 C 273.476562 136.847656 272.460938 145.683594 272.589844 153.394531 C 272.542969 291.867188 272.621094 430.304688 272.542969 568.78125 C 272.542969 568.859375 272.542969 568.945312 272.542969 569.023438 C 272.542969 569.117188 272.542969 569.210938 272.542969 569.304688 C 272.597656 570.648438 272.613281 572.035156 272.621094 573.433594 C 272.628906 574.375 272.636719 575.308594 272.644531 576.261719 C 272.652344 576.886719 272.683594 577.507812 272.699219 578.136719 C 272.714844 578.695312 272.722656 579.257812 272.753906 579.816406 C 273.066406 585.84375 274.207031 591.730469 278.75 596.097656 C 278.765625 596.121094 278.789062 596.128906 278.804688 596.152344 C 278.8125 596.160156 278.820312 596.167969 278.828125 596.175781 C 278.859375 596.207031 278.890625 596.222656 278.921875 596.253906 C 279.558594 596.90625 280.234375 597.476562 280.925781 598.003906 C 281.082031 598.121094 281.230469 598.238281 281.386719 598.347656 C 288.179688 603.167969 297.171875 602.460938 305.46875 602.34375 C 306.453125 602.34375 307.425781 602.34375 308.40625 602.34375 C 308.949219 602.351562 309.480469 602.359375 310.015625 602.382812 C 444.480469 602.320312 578.925781 602.320312 713.375 602.335938 C 847.824219 602.328125 982.28125 602.328125 1116.734375 602.382812 C 1117.261719 602.359375 1117.804688 602.351562 1118.34375 602.34375 C 1119.328125 602.34375 1120.300781 602.34375 1121.28125 602.34375 C 1129.585938 602.453125 1138.574219 603.167969 1145.363281 598.347656 C 1145.519531 598.238281 1145.675781 598.121094 1145.828125 598.003906 C 1146.515625 597.476562 1147.191406 596.90625 1147.835938 596.246094 C 1147.867188 596.214844 1147.898438 596.199219 1147.921875 596.167969 C 1147.929688 596.160156 1147.9375 596.152344 1147.945312 596.144531 C 1147.960938 596.121094 1147.984375 596.105469 1148.007812 596.089844 C 1152.554688 591.722656 1153.691406 585.835938 1154.003906 579.808594 C 1154.039062 579.25 1154.046875 578.6875 1154.0625 578.128906 C 1154.101562 577.515625 1154.125 576.886719 1154.140625 576.261719 Z M 809.832031 581.613281 C 809.871094 563.308594 809.792969 545.003906 809.832031 526.699219 C 860.3125 526.375 910.792969 526.660156 961.273438 526.53125 C 961.351562 544.855469 961.273438 563.214844 961.15625 581.574219 C 935.9375 581.636719 910.722656 581.644531 885.5 581.636719 C 860.273438 581.636719 835.050781 581.613281 809.832031 581.613281 Z M 713.390625 581.589844 C 688.21875 581.589844 663.050781 581.613281 637.894531 581.566406 C 637.761719 569.234375 637.746094 556.917969 637.707031 544.601562 C 637.746094 538.589844 637.753906 532.578125 637.894531 526.5625 C 648.292969 526.53125 658.695312 526.53125 669.097656 526.539062 C 683.789062 526.585938 698.484375 526.601562 713.171875 526.585938 C 713.242188 526.585938 713.320312 526.585938 713.390625 526.585938 C 713.460938 526.585938 713.539062 526.585938 713.609375 526.585938 C 728.304688 526.601562 742.992188 526.585938 757.6875 526.539062 C 768.085938 526.53125 778.488281 526.53125 788.890625 526.5625 C 789.03125 532.578125 789.039062 538.589844 789.078125 544.601562 C 789.039062 556.917969 789.023438 569.234375 788.890625 581.566406 C 763.730469 581.613281 738.566406 581.589844 713.390625 581.589844 Z M 541.28125 581.636719 C 516.058594 581.644531 490.847656 581.628906 465.625 581.574219 C 465.507812 563.214844 465.421875 544.855469 465.507812 526.53125 C 515.988281 526.652344 566.46875 526.367188 616.949219 526.699219 C 616.988281 545.019531 616.988281 563.300781 616.949219 581.613281 C 591.738281 581.613281 566.507812 581.636719 541.28125 581.636719 Z M 382.78125 299.261719 C 428.796875 299.332031 474.808594 299.386719 520.816406 299.246094 C 519.992188 317.550781 520.855469 335.9375 520.542969 354.25 C 500.933594 354.320312 481.316406 354.359375 461.710938 354.34375 C 435.492188 354.320312 409.28125 354.320312 383.0625 354.335938 C 382.90625 335.976562 382.664062 317.625 382.78125 299.261719 Z M 616.949219 375.050781 C 616.988281 393.371094 616.988281 411.691406 616.949219 430.054688 C 566.507812 430.171875 516.027344 430.171875 465.585938 430.054688 C 465.46875 411.691406 465.421875 393.371094 465.507812 375.050781 C 515.988281 375.050781 566.46875 375.050781 616.949219 375.050781 Z M 699.632812 450.832031 C 699.710938 469.113281 699.433594 487.433594 699.632812 505.753906 C 651.457031 505.886719 603.308594 505.785156 555.128906 505.824219 C 555.050781 487.503906 555.007812 469.183594 555.050781 450.863281 C 603.246094 450.832031 651.433594 450.863281 699.632812 450.832031 Z M 670.617188 430.125 C 659.761719 430.117188 648.90625 430.101562 638.042969 430.015625 C 637.746094 417.359375 637.675781 404.707031 637.652344 392.054688 C 637.640625 386.386719 637.617188 380.71875 637.652344 375.050781 C 688.15625 375.050781 738.628906 375.050781 789.132812 375.050781 C 789.15625 380.71875 789.140625 386.386719 789.132812 392.054688 C 789.101562 404.707031 789.039062 417.359375 788.738281 430.015625 C 777.882812 430.101562 767.019531 430.117188 756.164062 430.125 C 741.910156 430.070312 727.644531 430.0625 713.390625 430.085938 C 699.136719 430.0625 684.882812 430.070312 670.617188 430.125 Z M 727.152344 450.832031 C 775.347656 450.863281 823.535156 450.832031 871.734375 450.871094 C 871.773438 469.191406 871.734375 487.511719 871.65625 505.832031 C 823.472656 505.792969 775.332031 505.886719 727.152344 505.761719 C 727.355469 487.433594 727.074219 469.113281 727.152344 450.832031 Z M 961.273438 375.050781 C 961.351562 393.371094 961.3125 411.691406 961.195312 430.054688 C 910.753906 430.171875 860.273438 430.171875 809.832031 430.054688 C 809.832031 411.714844 809.832031 393.386719 809.832031 375.050781 C 860.3125 375.050781 910.792969 375.050781 961.273438 375.050781 Z M 1085.351562 354.382812 C 1078.445312 354.375 1071.53125 354.367188 1064.621094 354.359375 C 1064.582031 336.054688 1064.621094 317.742188 1064.582031 299.4375 C 1087.542969 299.515625 1110.503906 299.113281 1133.464844 299.316406 C 1133.503906 317.601562 1133.503906 335.875 1133.464844 354.15625 C 1117.441406 354.375 1101.398438 354.382812 1085.351562 354.382812 Z M 982.058594 278.601562 C 981.941406 260.203125 981.980469 241.882812 982.019531 223.523438 C 1032.5 223.5625 1082.984375 223.523438 1133.464844 223.523438 C 1133.503906 241.804688 1133.503906 260.039062 1133.464844 278.320312 C 1082.984375 278.847656 1032.539062 278.367188 982.058594 278.601562 Z M 1044 299.261719 C 1044.117188 317.617188 1043.882812 335.976562 1043.71875 354.328125 C 1017.5 354.320312 991.285156 354.320312 965.074219 354.335938 C 945.464844 354.351562 925.847656 354.3125 906.242188 354.242188 C 905.925781 335.9375 906.789062 317.550781 905.964844 299.238281 C 951.972656 299.386719 997.988281 299.339844 1044 299.261719 Z M 871.734375 354.210938 C 864.105469 354.25 856.472656 354.304688 848.835938 354.3125 C 835.679688 354.304688 822.515625 354.304688 809.359375 354.320312 C 790.945312 354.304688 772.539062 354.289062 754.132812 354.3125 C 747.433594 354.296875 740.738281 354.25 734.042969 354.210938 C 733.964844 335.898438 734.40625 317.617188 734.082031 299.300781 C 779.941406 299.339844 825.828125 299.324219 871.726562 299.261719 C 871.773438 317.582031 871.65625 335.898438 871.734375 354.210938 Z M 789.171875 223.570312 C 789.179688 226.480469 789.164062 229.402344 789.148438 232.3125 C 789.078125 239.316406 789.023438 246.324219 789.03125 253.335938 C 788.984375 261.695312 788.960938 270.046875 789.09375 278.40625 C 763.863281 278.570312 738.636719 278.578125 713.390625 278.5625 C 688.15625 278.578125 662.917969 278.570312 637.691406 278.40625 C 637.816406 270.054688 637.800781 261.710938 637.746094 253.359375 C 637.753906 246.339844 637.699219 239.324219 637.625 232.3125 C 637.617188 229.402344 637.59375 226.480469 637.601562 223.570312 C 662.855469 223.546875 688.125 223.5625 713.382812 223.5625 C 738.660156 223.554688 763.917969 223.546875 789.171875 223.570312 Z M 692.691406 299.308594 C 692.371094 317.625 692.808594 335.90625 692.730469 354.21875 C 686.035156 354.257812 679.339844 354.304688 672.644531 354.320312 C 654.238281 354.296875 635.828125 354.304688 617.414062 354.328125 C 604.257812 354.3125 591.101562 354.3125 577.9375 354.320312 C 570.308594 354.304688 562.679688 354.257812 555.042969 354.21875 C 555.121094 335.90625 555 317.59375 555.042969 299.277344 C 600.945312 299.332031 646.835938 299.339844 692.691406 299.308594 Z M 444.769531 375.089844 C 444.683594 387.8125 444.730469 400.53125 444.769531 413.253906 C 444.761719 418.882812 444.785156 424.503906 444.769531 430.132812 C 444.753906 430.132812 444.746094 430.132812 444.730469 430.132812 C 428.804688 430.09375 412.867188 430.101562 396.941406 430.117188 C 377.230469 430.109375 357.511719 430.125 337.8125 430.132812 C 322.984375 430.117188 308.15625 430.078125 293.328125 429.96875 C 293.289062 411.644531 293.289062 393.363281 293.328125 375.042969 C 343.800781 375.050781 394.289062 375.011719 444.769531 375.089844 Z M 355.183594 450.871094 C 355.183594 469.191406 355.261719 487.503906 355.222656 505.824219 C 334.585938 505.847656 313.964844 505.824219 293.320312 505.753906 C 293.28125 487.472656 293.28125 469.152344 293.320312 450.878906 C 313.917969 450.800781 334.554688 450.839844 355.183594 450.871094 Z M 293.320312 526.570312 C 343.761719 526.609375 394.242188 526.40625 444.683594 526.691406 C 444.800781 544.972656 444.800781 563.292969 444.761719 581.605469 C 394.28125 581.605469 343.800781 581.644531 293.320312 581.605469 C 293.28125 563.253906 293.28125 544.894531 293.320312 526.570312 Z M 383.0625 505.832031 C 382.664062 487.511719 382.742188 469.152344 382.78125 450.832031 C 431.054688 450.871094 479.292969 450.839844 527.527344 450.871094 C 527.167969 469.175781 527.410156 487.527344 527.527344 505.832031 C 510.660156 505.832031 493.789062 505.847656 476.929688 505.847656 C 445.632812 505.847656 414.351562 505.855469 383.0625 505.832031 Z M 899.253906 505.832031 C 899.371094 487.527344 899.617188 469.175781 899.253906 450.871094 C 947.492188 450.839844 995.726562 450.871094 1044 450.832031 C 1044.039062 469.152344 1044.117188 487.511719 1043.71875 505.832031 C 1012.4375 505.855469 981.148438 505.847656 949.859375 505.847656 C 932.992188 505.847656 916.125 505.832031 899.253906 505.832031 Z M 982.097656 526.691406 C 1032.539062 526.40625 1083.023438 526.609375 1133.464844 526.570312 C 1133.503906 544.917969 1133.425781 563.269531 1133.464844 581.613281 C 1083 581.613281 1032.484375 581.613281 982.019531 581.613281 C 981.980469 563.292969 981.980469 544.972656 982.097656 526.691406 Z M 1071.5625 505.824219 C 1071.523438 487.503906 1071.601562 469.191406 1071.601562 450.871094 C 1092.230469 450.839844 1112.867188 450.800781 1133.464844 450.871094 C 1133.464844 469.160156 1133.425781 487.457031 1133.464844 505.746094 C 1112.820312 505.824219 1092.199219 505.839844 1071.5625 505.824219 Z M 1088.980469 430.132812 C 1069.269531 430.125 1049.558594 430.109375 1029.847656 430.117188 C 1013.921875 430.101562 997.988281 430.09375 982.058594 430.132812 C 982.042969 430.132812 982.035156 430.132812 982.019531 430.132812 C 982.003906 424.488281 982.027344 418.851562 982.019531 413.214844 C 982.058594 400.507812 982.105469 387.796875 982.019531 375.089844 C 1032.5 375.011719 1082.984375 375.050781 1133.464844 375.050781 C 1133.464844 393.339844 1133.464844 411.636719 1133.464844 429.976562 C 1118.636719 430.078125 1103.808594 430.117188 1088.980469 430.132812 Z M 1064.621094 147.78125 C 1087.582031 147.984375 1110.503906 147.703125 1133.464844 147.820312 C 1133.503906 166.140625 1133.503906 184.460938 1133.425781 202.824219 C 1110.542969 202.824219 1087.660156 202.824219 1064.828125 202.824219 C 1064.496094 184.460938 1064.621094 166.140625 1064.621094 147.78125 Z M 892.480469 147.78125 C 943 147.859375 993.519531 147.820312 1044.039062 147.78125 C 1044.039062 166.140625 1043.59375 184.460938 1044 202.824219 C 993.558594 202.785156 943.117188 202.863281 892.636719 202.785156 C 892.480469 184.421875 892.394531 166.101562 892.480469 147.78125 Z M 961.273438 223.523438 C 961.351562 241.882812 961.15625 260.242188 961.234375 278.601562 C 932.75 278.445312 904.253906 278.539062 875.753906 278.5625 C 863.953125 278.226562 852.140625 278.359375 840.328125 278.515625 C 830.171875 278.476562 820.019531 278.4375 809.863281 278.320312 C 809.847656 271.128906 809.855469 263.933594 809.847656 256.742188 C 809.933594 249.300781 809.980469 241.859375 809.832031 234.433594 C 809.832031 230.78125 809.816406 227.132812 809.824219 223.484375 C 860.3125 223.609375 910.792969 223.570312 961.273438 223.523438 Z M 616.949219 223.484375 C 616.957031 227.132812 616.941406 230.773438 616.941406 234.425781 C 616.792969 241.859375 616.839844 249.300781 616.925781 256.742188 C 616.917969 263.933594 616.925781 271.128906 616.910156 278.320312 C 606.761719 278.429688 596.605469 278.476562 586.449219 278.515625 C 574.632812 278.367188 562.820312 278.226562 551.023438 278.5625 C 522.527344 278.539062 494.027344 278.4375 465.539062 278.601562 C 465.617188 260.242188 465.421875 241.882812 465.5 223.523438 C 515.988281 223.570312 566.46875 223.609375 616.949219 223.484375 Z M 534.308594 147.78125 C 534.390625 166.101562 534.308594 184.421875 534.144531 202.785156 C 483.664062 202.863281 433.222656 202.785156 382.78125 202.824219 C 383.183594 184.460938 382.742188 166.140625 382.742188 147.78125 C 433.261719 147.820312 483.789062 147.867188 534.308594 147.78125 Z M 362.167969 147.78125 C 362.167969 166.140625 362.285156 184.460938 361.964844 202.824219 C 339.121094 202.824219 316.246094 202.824219 293.367188 202.824219 C 293.289062 184.460938 293.289062 166.140625 293.328125 147.820312 C 316.289062 147.703125 339.199219 147.984375 362.167969 147.78125 Z M 293.320312 223.523438 C 343.800781 223.523438 394.28125 223.5625 444.761719 223.523438 C 444.800781 241.882812 444.839844 260.203125 444.722656 278.601562 C 394.242188 278.359375 343.800781 278.847656 293.320312 278.320312 C 293.28125 260.046875 293.28125 241.804688 293.320312 223.523438 Z M 293.320312 299.308594 C 316.28125 299.105469 339.238281 299.515625 362.199219 299.429688 C 362.160156 317.742188 362.199219 336.046875 362.160156 354.351562 C 355.253906 354.359375 348.335938 354.367188 341.429688 354.375 C 325.386719 354.375 309.339844 354.367188 293.320312 354.140625 C 293.28125 335.867188 293.28125 317.582031 293.320312 299.308594 Z M 293.320312 299.308594 " fill-opacity="1" fill-rule="nonzero"/></g></svg>