<svg xmlns="http://www.w3.org/2000/svg" xmlns:xlink="http://www.w3.org/1999/xlink" width="1920" zoomAndPan="magnify" viewBox="0 0 1440 809.999993" height="1080" preserveAspectRatio="xMidYMid meet" version="1.0"><defs><clipPath id="eda382231c"><path d="M 508.535156 172 L 931.535156 172 L 931.535156 599 L 508.535156 599 Z M 508.535156 172 " clip-rule="nonzero"/></clipPath><clipPath id="d5c5329e18"><path d="M 455 251 L 984 251 L 984 561 L 455 561 Z M 455 251 " clip-rule="nonzero"/></clipPath><clipPath id="51dbab262a"><path d="M 871.457031 138.058594 L 986.984375 556.660156 L 568.382812 672.1875 L 452.855469 253.589844 Z M 871.457031 138.058594 " clip-rule="nonzero"/></clipPath><clipPath id="9eb5641314"><path d="M 871.457031 138.058594 L 986.984375 556.660156 L 568.382812 672.1875 L 452.855469 253.589844 Z M 871.457031 138.058594 " clip-rule="nonzero"/></clipPath></defs><g clip-path="url(#eda382231c)"><path fill="#271629" d="M 660.316406 515.980469 L 765.335938 480.957031 L 660.460938 480.957031 C 655.898438 480.957031 652.203125 477.265625 652.203125 472.699219 C 652.203125 468.128906 655.898438 464.4375 660.460938 464.4375 L 771.792969 464.4375 C 779.390625 464.4375 785.800781 469.894531 787.054688 477.402344 C 788.3125 484.96875 783.925781 492.207031 776.632812 494.609375 L 665.378906 531.714844 C 663.554688 532.265625 661.976562 532.5 660.457031 532.5 C 655.894531 532.5 652.195312 528.804688 652.195312 524.242188 C 652.203125 519.726562 655.832031 516.054688 660.316406 515.980469 Z M 775.675781 564.257812 C 775.5 564.445312 756.945312 582.472656 720.816406 582.472656 C 689.953125 582.472656 671.929688 569.363281 667.167969 565.394531 L 776.757812 528.875 C 781.078125 527.441406 783.421875 522.765625 781.988281 518.433594 C 780.539062 514.097656 775.871094 511.792969 771.53125 513.210938 L 660.285156 550.277344 C 655.183594 551.960938 651.277344 556.238281 650.070312 561.410156 C 648.84375 566.589844 650.425781 572.148438 654.167969 575.898438 C 655.101562 576.84375 677.546875 598.996094 720.816406 598.996094 C 764.027344 598.996094 786.472656 576.84375 787.40625 575.898438 C 790.601562 572.664062 790.570312 567.464844 787.359375 564.25 C 784.136719 561.035156 778.90625 561.046875 775.675781 564.257812 Z M 719.757812 189.785156 C 649.84375 189.785156 592.957031 246.644531 592.957031 316.53125 C 592.957031 351.851562 611.335938 379.167969 627.675781 403.476562 C 638.925781 420.117188 648.621094 434.488281 648.621094 446.425781 C 648.621094 450.996094 652.316406 454.6875 656.878906 454.6875 C 661.441406 454.6875 665.140625 450.988281 665.140625 446.425781 C 665.140625 429.429688 654.121094 413.113281 641.261719 394.054688 C 626.351562 371.90625 609.476562 346.808594 609.476562 316.53125 C 609.476562 255.753906 658.949219 206.308594 719.757812 206.308594 C 780.539062 206.308594 829.972656 255.753906 829.972656 316.53125 C 829.972656 346.855469 813.066406 371.96875 798.160156 394.117188 C 785.382812 413.042969 774.34375 429.390625 774.34375 446.425781 C 774.34375 450.996094 778.039062 454.6875 782.601562 454.6875 C 787.164062 454.6875 790.863281 450.988281 790.863281 446.425781 C 790.863281 434.4375 800.59375 420.039062 811.851562 403.351562 C 828.085938 379.238281 846.496094 351.910156 846.496094 316.53125 C 846.496094 246.644531 789.636719 189.785156 719.757812 189.785156 Z M 725.855469 243.207031 C 725.855469 238.636719 722.160156 234.945312 717.59375 234.945312 C 673.769531 234.945312 638.132812 270.59375 638.132812 314.417969 C 638.132812 318.988281 641.828125 322.679688 646.394531 322.679688 C 650.960938 322.679688 654.652344 318.980469 654.652344 314.417969 C 654.652344 279.703125 682.890625 251.472656 717.59375 251.472656 C 722.160156 251.464844 725.855469 247.773438 725.855469 243.207031 Z M 577.402344 316.53125 C 577.402344 311.964844 573.703125 308.269531 569.140625 308.269531 L 516.570312 308.269531 C 512.003906 308.269531 508.3125 311.964844 508.3125 316.53125 C 508.3125 321.097656 512.003906 324.792969 516.570312 324.792969 L 569.140625 324.792969 C 573.703125 324.792969 577.402344 321.097656 577.402344 316.53125 Z M 922.894531 308.269531 L 870.308594 308.269531 C 865.742188 308.269531 862.050781 311.964844 862.050781 316.53125 C 862.050781 321.097656 865.742188 324.792969 870.308594 324.792969 L 922.894531 324.792969 C 927.464844 324.792969 931.15625 321.09375 931.15625 316.53125 C 931.15625 311.964844 927.457031 308.269531 922.894531 308.269531 Z M 601.179688 218.59375 C 602.652344 219.65625 604.347656 220.167969 606.042969 220.167969 C 608.589844 220.167969 611.105469 218.988281 612.722656 216.761719 C 615.402344 213.070312 614.59375 207.902344 610.902344 205.21875 L 568.371094 174.324219 C 564.6875 171.65625 559.507812 172.441406 556.835938 176.15625 C 554.152344 179.851562 554.960938 185.015625 558.660156 187.699219 Z M 601.179688 414.515625 L 558.648438 445.410156 C 554.953125 448.09375 554.148438 453.257812 556.824219 456.953125 C 558.441406 459.179688 560.953125 460.359375 563.503906 460.359375 C 565.199219 460.359375 566.894531 459.847656 568.359375 458.785156 L 610.890625 427.894531 C 614.589844 425.207031 615.390625 420.042969 612.710938 416.347656 C 610.023438 412.628906 604.863281 411.859375 601.179688 414.515625 Z M 833.425781 220.167969 C 835.121094 220.167969 836.816406 219.660156 838.285156 218.59375 L 880.816406 187.707031 C 884.515625 185.019531 885.316406 179.859375 882.644531 176.160156 C 879.960938 172.449219 874.785156 171.660156 871.109375 174.328125 L 828.578125 205.222656 C 824.878906 207.90625 824.074219 213.070312 826.75 216.769531 C 828.363281 218.988281 830.875 220.167969 833.425781 220.167969 Z M 838.285156 414.515625 C 834.625 411.851562 829.441406 412.628906 826.75 416.347656 C 824.070312 420.042969 824.878906 425.207031 828.578125 427.894531 L 871.109375 458.785156 C 872.574219 459.847656 874.269531 460.359375 875.960938 460.359375 C 878.511719 460.359375 881.027344 459.179688 882.644531 456.953125 C 885.324219 453.257812 884.515625 448.09375 880.816406 445.410156 Z M 838.285156 414.515625 " fill-opacity="1" fill-rule="nonzero"/></g><g clip-path="url(#d5c5329e18)"><g clip-path="url(#51dbab262a)"><g clip-path="url(#9eb5641314)"><path fill="#807b75" d="M 456.308594 264.738281 C 455.921875 263.386719 455.800781 262.011719 455.945312 260.613281 C 456.085938 259.214844 456.488281 257.894531 457.140625 256.648438 C 457.511719 256.023438 457.933594 255.441406 458.414062 254.898438 C 458.894531 254.359375 459.425781 253.867188 460 253.425781 C 460.574219 252.988281 461.1875 252.605469 461.835938 252.28125 C 462.484375 251.960938 463.15625 251.703125 463.855469 251.507812 C 464.554688 251.316406 465.265625 251.191406 465.988281 251.136719 C 466.710938 251.082031 467.429688 251.09375 468.152344 251.175781 C 468.871094 251.261719 469.574219 251.410156 470.265625 251.628906 C 470.957031 251.847656 471.621094 252.128906 472.257812 252.476562 L 978.339844 539.574219 C 978.949219 539.925781 979.519531 540.328125 980.050781 540.789062 C 980.582031 541.25 981.0625 541.757812 981.492188 542.3125 C 981.921875 542.867188 982.296875 543.460938 982.609375 544.089844 C 982.925781 544.71875 983.175781 545.371094 983.363281 546.046875 C 983.550781 546.722656 983.667969 547.414062 983.722656 548.113281 C 983.773438 548.8125 983.757812 549.511719 983.671875 550.210938 C 983.585938 550.910156 983.433594 551.589844 983.214844 552.257812 C 982.996094 552.925781 982.714844 553.566406 982.371094 554.179688 C 982.042969 554.839844 981.648438 555.460938 981.1875 556.039062 C 980.726562 556.621094 980.210938 557.144531 979.640625 557.613281 C 979.070312 558.085938 978.457031 558.492188 977.800781 558.832031 C 977.144531 559.171875 976.457031 559.441406 975.746094 559.640625 C 975.03125 559.835938 974.304688 559.957031 973.566406 560 C 972.828125 560.042969 972.09375 560.011719 971.363281 559.898438 C 970.632812 559.789062 969.921875 559.601562 969.226562 559.339844 C 968.535156 559.078125 967.878906 558.75 967.257812 558.351562 L 461.292969 271.691406 C 460.035156 270.90625 458.976562 269.914062 458.113281 268.707031 C 457.25 267.503906 456.648438 266.179688 456.308594 264.738281 Z M 456.308594 264.738281 " fill-opacity="1" fill-rule="nonzero"/></g></g></g></svg>